<svg xmlns="http://www.w3.org/2000/svg" viewBox="0 0 287.93 323.75"><defs><style>.cls-1{isolation:isolate;}.cls-2,.cls-4{fill:#fff;}.cls-3,.cls-4{opacity:0.9;mix-blend-mode:soft-light;}</style></defs><g class="cls-1"><g id="Layer_1" data-name="Layer 1"><polygon class="cls-2" points="263 44.12 263 44.12 288.49 -0.02 -0.12 -0.2 33.19 44.14 263 44.12"/><polygon class="cls-2" points="-0.11 -0.21 -0.11 101.58 0.02 101.58 33.19 44.12 -0.11 -0.21"/><polygon class="cls-2" points="288.49 -0.02 263 44.12 263 44.12 263.13 44.34 263 44.12 287.93 87.3 287.93 87.3 288.49 -0.02"/><polygon class="cls-2" points="33.19 44.12 0.02 101.58 101.55 101.58 101.55 87.31 101.56 87.3 287.93 87.3 263 44.12 33.19 44.12"/><polygon class="cls-2" points="287.93 87.28 263 44.1 263.11 43.9 263.39 43.9 263.11 43.9 288.04 0.73 288.49 -0.01 287.93 87.28"/><g class="cls-3"><polygon class="cls-2" points="263 44.11 263 44.11 288.5 -0.03 -0.12 -0.2 0.01 -0.02 33.19 44.14 263 44.11"/></g><polygon class="cls-2" points="33.17 44.12 0 101.58 101.53 101.58 101.53 87.31 101.54 87.3 287.93 87.28 262.99 44.12 33.17 44.12"/><polygon class="cls-2" points="263 279.9 263 279.9 288.49 324.05 -0.12 324.23 33.19 279.88 263 279.9"/><polygon class="cls-2" points="-0.11 324.24 -0.11 222.45 0.02 222.45 33.19 279.9 -0.11 324.24"/><polygon class="cls-2" points="288.49 324.05 263 279.9 263 279.9 263.13 279.69 263 279.9 287.93 236.73 287.93 236.73 288.49 324.05"/><polygon class="cls-2" points="33.19 279.9 0.02 222.45 101.55 222.45 101.55 236.72 101.56 236.73 287.93 236.73 263 279.9 33.19 279.9"/><polygon class="cls-2" points="287.93 236.24 263 279.42 263.11 279.62 263.39 279.62 263.11 279.62 288.04 322.8 288.49 323.53 287.93 236.24"/><polygon class="cls-2" points="263 279.91 263 279.91 288.5 324.05 -0.12 324.23 0.01 324.05 33.19 279.88 263 279.91"/><polygon class="cls-4" points="33.17 279.9 0 222.45 101.53 222.45 101.53 236.72 101.54 236.73 287.93 236.74 262.99 279.9 33.17 279.9"/><polygon class="cls-2" points="0.61 125.01 0.61 125.01 0.61 199.01 21.97 162.01 0.61 125.01"/><polygon class="cls-2" points="233.76 162.02 255.13 125.01 0.61 125.01 0.61 125.01 21.97 162.02 233.76 162.02"/><polygon class="cls-2" points="21.97 162.01 0.61 199.01 255.13 199.01 233.77 162.01 21.97 162.01"/><polygon class="cls-2" points="233.78 162.01 255.14 199.01 255.14 125.01 233.78 162.01"/><polygon class="cls-4" points="233.76 162.02 255.13 125.01 0.61 125.01 0.61 125.01 21.97 162.02 233.76 162.02"/><polygon class="cls-2" points="21.97 162.01 0.61 199.01 255.13 199.01 233.77 162.01 21.97 162.01"/><polygon class="cls-2" points="233.78 162.02 255.14 199.02 255.14 125.01 233.78 162.02"/></g></g></svg>