<svg xmlns="http://www.w3.org/2000/svg" viewBox="0 0 312.21 50.85"><defs><style>.cls-1{fill:#f1f2f2;}</style></defs><g id="Layer_1" data-name="Layer 1"><path class="cls-1" d="M2.16,5a2.55,2.55,0,0,0-.45-1.58A2.09,2.09,0,0,0,0,2.88V1.8H37.71a6.49,6.49,0,0,0,3-.41A1.52,1.52,0,0,0,41.31,0h1.08V10.26H41.31a2.38,2.38,0,0,0-.72-1.84,4.13,4.13,0,0,0-2.79-.68H9.72V22H28a5.77,5.77,0,0,0,2.66-.54,2,2,0,0,0,1-2h1.08V30.33H31.68a2.1,2.1,0,0,0-.81-1.89,5.06,5.06,0,0,0-2.7-.54H9.72V43.2H39.78a4.66,4.66,0,0,0,2.79-.68,2.79,2.79,0,0,0,.9-2.38h1.08V50.85H43.47q0-1.71-3.15-1.71H0V48.06a2,2,0,0,0,1.71-.59,2.5,2.5,0,0,0,.45-1.57Z"/><path class="cls-1" d="M130.77,37.26V5a2.55,2.55,0,0,0-.45-1.58,2.09,2.09,0,0,0-1.71-.58V1.8h10.8V2.88a2.09,2.09,0,0,0-1.71.58A2.55,2.55,0,0,0,137.25,5V45.9a2.5,2.5,0,0,0,.45,1.57,2,2,0,0,0,1.71.59v1.08H127.89V48.06q1.8,0,1.8-.72a1.51,1.51,0,0,0-.36-1,6.58,6.58,0,0,1-.54-.67l-32-36.45V45.9a2.5,2.5,0,0,0,.45,1.57,2,2,0,0,0,1.71.59v1.08H88.11V48.06a2,2,0,0,0,1.71-.59,2.5,2.5,0,0,0,.45-1.57V5a2.55,2.55,0,0,0-.45-1.58,2.09,2.09,0,0,0-1.71-.58V1.8h15.21V2.88A2.93,2.93,0,0,0,102,3.1a.84.84,0,0,0-.36.77,1,1,0,0,0,.22.59,4.63,4.63,0,0,0,.5.58l28.26,32.22Z"/><path class="cls-1" d="M197.1,48.06a3.23,3.23,0,0,0,1.71-.31.93.93,0,0,0,.45-.77,3.79,3.79,0,0,0-.09-.95,7.6,7.6,0,0,0-.45-1L181.08,5.94a6.9,6.9,0,0,0-1.62-2.52,3.23,3.23,0,0,0-2-.54V1.8h13V2.88q-2.34,0-2.34,1.44a1.56,1.56,0,0,0,.22.76,7.57,7.57,0,0,1,.41.86L204.3,40.5,219.06,5.94q.18-.45.36-.81a1.6,1.6,0,0,0,.18-.72,1.39,1.39,0,0,0-.5-1.13,3,3,0,0,0-1.84-.4V1.8H230V2.88a3.12,3.12,0,0,0-2.07.67,6.3,6.3,0,0,0-1.53,2.39L209.52,45c-.06.12-.2.4-.41.85A2.8,2.8,0,0,0,208.8,47a1,1,0,0,0,.36.77,3,3,0,0,0,1.71.31v1.08H197.1Z"/><path class="cls-1" d="M269.82,5a2.55,2.55,0,0,0-.45-1.58,2.09,2.09,0,0,0-1.71-.58V1.8h37.71a6.49,6.49,0,0,0,3-.41A1.52,1.52,0,0,0,309,0h1.08V10.26H309a2.38,2.38,0,0,0-.72-1.84,4.13,4.13,0,0,0-2.79-.68H277.38V22h18.27a5.7,5.7,0,0,0,2.65-.54,2,2,0,0,0,1-2h1.08V30.33h-1.08a2.1,2.1,0,0,0-.81-1.89,5.06,5.06,0,0,0-2.7-.54H277.38V43.2h30.06a4.66,4.66,0,0,0,2.79-.68,2.79,2.79,0,0,0,.9-2.38h1.08V50.85h-1.08q0-1.71-3.15-1.71H267.66V48.06a2,2,0,0,0,1.71-.59,2.5,2.5,0,0,0,.45-1.57Z"/></g></svg>