<svg xmlns="http://www.w3.org/2000/svg" viewBox="0 0 288.61 324.47"><defs><style>.cls-1{isolation:isolate;}.cls-2,.cls-3{opacity:0.9;mix-blend-mode:soft-light;}</style></defs><g class="cls-1"><g id="Layer_1" data-name="Layer 1"><polygon points="263.12 44.36 263.12 44.36 288.6 0.21 0 0.04 33.3 44.38 263.12 44.36"/><polygon points="0 0.03 0 101.81 0.13 101.81 33.3 44.36 0 0.03"/><polygon points="288.6 0.21 263.12 44.36 263.12 44.36 263.24 44.58 263.12 44.36 288.04 87.53 288.04 87.53 288.6 0.21"/><polygon points="33.3 44.36 0.13 101.81 101.66 101.81 101.66 87.54 101.67 87.53 288.04 87.53 263.12 44.36 33.3 44.36"/><polygon points="288.04 87.52 263.12 44.34 263.23 44.14 263.51 44.14 263.23 44.14 288.16 0.96 288.61 0.23 288.04 87.52"/><g class="cls-2"><polygon points="263.12 44.35 263.12 44.35 288.61 0.21 0 0.04 0.12 0.21 33.3 44.38 263.12 44.35"/></g><polygon points="33.29 44.36 0.12 101.81 101.65 101.81 101.65 87.54 101.66 87.53 288.04 87.52 263.1 44.36 33.29 44.36"/><polygon points="263.12 280.13 263.12 280.13 288.6 324.28 0 324.46 33.3 280.12 263.12 280.13"/><polygon points="0 324.46 0 222.68 0.13 222.68 33.3 280.13 0 324.46"/><polygon points="288.6 324.28 263.12 280.13 263.12 280.13 263.24 279.92 263.12 280.13 288.04 236.96 288.04 236.96 288.6 324.28"/><polygon points="33.3 280.13 0.13 222.68 101.66 222.68 101.66 236.95 101.67 236.96 288.04 236.96 263.12 280.13 33.3 280.13"/><polygon points="288.04 236.96 263.12 280.14 263.23 280.34 263.51 280.34 263.23 280.34 288.16 323.51 288.61 324.24 288.04 236.96"/><polygon points="263.12 280.14 263.12 280.14 288.61 324.28 0 324.46 0.12 324.28 33.3 280.12 263.12 280.14"/><polygon class="cls-3" points="33.29 280.12 0.12 222.66 101.65 222.66 101.65 236.93 101.65 236.94 288.04 236.96 263.1 280.12 33.29 280.12"/><polygon points="0.12 125.24 0.12 125.24 0.12 199.24 21.48 162.24 0.12 125.24"/><polygon points="233.27 162.25 254.64 125.24 0.12 125.24 0.12 125.24 21.48 162.25 233.27 162.25"/><polygon points="21.48 162.24 0.12 199.24 254.64 199.24 233.28 162.24 21.48 162.24"/><polygon points="233.29 162.24 254.65 199.24 254.65 125.24 233.29 162.24"/><polygon class="cls-3" points="233.27 162.25 254.64 125.24 0.12 125.24 0.12 125.24 21.48 162.25 233.27 162.25"/><polygon points="21.48 162.24 0.12 199.24 254.64 199.24 233.28 162.24 21.48 162.24"/><polygon points="233.29 162.25 254.65 199.25 254.65 125.24 233.29 162.25"/></g></g></svg>