<svg id="Layer_1" data-name="Layer 1" xmlns="http://www.w3.org/2000/svg" viewBox="0 0 332.22 61.89"><defs><style>.cls-1{fill:#01509e;opacity:0.6;}.cls-2{fill:#87888c;}.cls-3{fill:#fbfcfd;}</style></defs><path class="cls-1" d="M43.62,30.7a12.52,12.52,0,0,1-13,12.35A12.35,12.35,0,0,1,18.34,30.42c.06-7.19,5.57-12.42,13-12.3A12.41,12.41,0,0,1,43.62,30.7Z"/><path class="cls-1" d="M61.88,14.09C61.69,6.32,55.16.35,47.29.19c-5.31-.1-10.64,0-16,0S20.4.11,14.94.19C7,.32.44,6.12.22,13.94c-.3,11.22-.3,22.47,0,33.69A14,14,0,0,0,13.91,61q17,.47,34.08,0A14.19,14.19,0,0,0,61.86,47.35Q62.3,30.73,61.88,14.09ZM43.79,46.14c-4.32-.08-8.64,0-13,0-4.17,0-8.34-.09-12.51,0-2.22.07-3.05-.66-3-2.92q.15-12.58,0-25.17c0-2,.61-2.79,2.7-2.78q12.95.11,25.9,0c2,0,2.81.69,2.8,2.7q-.09,12.8,0,25.6C46.73,45.77,45.68,46.19,43.79,46.14Z"/><path class="cls-2" d="M221.58.44c7.95,9.82,14.59,20.55,21.95,30.79,2.62,3.66,5.18,7.37,8.2,11.68V2c2.61.16,1.75,2.22,1.79,3.54.15,4.69.14,9.38,0,14.07-.25,12.22.5,24.43.41,36.65,0,1.59.74,3.5-1.25,4.62q-17.26-24.63-34.55-49.25l-5.12-7.32V59c.24,1.23-.57,1.45-1.5,1.42s-1.65-.45-1.28-1.61l-.13-.26.22-.21c.69-.87.46-1.9.46-2.88q0-25.18,0-50.38c0-1,.68-2.31-.73-3l-.31.1-.23-.22C209.65,0,211.18.82,212.13.75,215.27.52,218.44,1,221.58.44Z"/><path class="cls-2" d="M95.44.36c1.67.31,2,1.9,2.74,3,8.42,12,16.75,24,25.17,36,.86,1.22,1.36,2.88,3.11,3.33,1.79,3.38,1.4,7,1.06,10.56A3.44,3.44,0,0,1,124,56.68L90.1,8.49c-.81-1.15-1.65-2.28-3.18-4.39V58.93c.32,1.17-.39,1.5-1.34,1.51s-1.7-.23-1.42-1.44q0-28.44,0-56.88C84.09.21,85.57.82,86.54.74,89.5.49,92.5,1.14,95.44.36Z"/><path class="cls-2" d="M287.36,46.38c.74,6.81,4.22,11.25,11.2,12.65,2.76,1.2,2.76,1.2,1.7,2.63a30.59,30.59,0,0,1-10.66-1c-7.53-1.71-10.44-4.9-11.25-12.52-1.12-10.48-.28-21-.48-31.53-.1-4.83-.09-9.66-.13-14.49a2.78,2.78,0,0,1,0-.79c3.51-.48,7.09-1.85,10.41.65l-.82.87c-.92,1.29-.47,2.76-.47,4.13q-.06,17.66,0,35.32C286.87,43.64,286.38,45.11,287.36,46.38Z"/><path class="cls-2" d="M164.53,59.05c.05-17.85,0-35.7.18-53.55,0-2.46-.76-3.27-3.16-3-1.85.21-3.72.14-5.58.2,0-1.44,1.17-1.38,2.15-1.53,7.47-.34,14.93-.78,22.4,0,1,.14,2.11.08,2.19,1.5-2.83.07-5.67-.53-8.49.19-.78.66-.57,1.56-.57,2.38q0,25.35,0,50.68c0,.83-.16,1.72.5,2.42l.82.82C172.6,61.12,166.52,61.05,164.53,59.05Z"/><path class="cls-2" d="M300.26,61.66c1.28-2-1.79-1.34-1.7-2.63,4.59,0,9.18.45,13.73-.68,5.87-1.45,9.28-4.66,9.4-10.59.31-14.5.14-29,.24-43.5,0-3.35-2.43-1.77-3.92-2.21s-4.4,1.35-4.58-1.14c-.09-1.39,2.93-.66,4.52-.7,4.17-.13,8.34,0,12.52,0,.69,0,1.62-.11,1.73.75.17,1.28-.93,1.06-1.75,1.15-5.8.65-5.82.66-5.85,6.33-.05,12.65.11,25.31-.18,38-.21,9.29-5.15,14-14.39,14.67-2,1.14-4.4-1.24-6.35.64Z"/><path class="cls-2" d="M124,56.68c4.14-2.48,2.39-6.48,2.43-9.92,0-1.34-.5-2.7.06-4.06-.06-12-.3-23.91-.09-35.85.07-3.87-.9-5.32-4.91-4.88-1.33.14-4.1,1.35-4.14-1.06,0-1.52,2.68-.67,4.13-.72,4-.13,8.06-.06,12.09,0,1.06,0,2.25-.28,3.21,1-1.43,1.47-3.11,1-4.49.87-2.83-.34-3.3.86-3.28,3.35.08,17.22,0,34.45,0,51.67,0,1,0,2,0,3,0,.71.07,1.51-.79,1.78s-1.46-.27-1.89-1.16A45.09,45.09,0,0,0,124,56.68Z"/><path class="cls-2" d="M252.72,60.91c1.75-5,1.21-10.19.69-15.14-1.16-11.18-.3-22.34-.64-33.5-.08-2.41,0-4.82,0-7.23,0-1.09.27-2.32-1-3-2.88-.2-5.85.62-8.94-.6.45-.55.68-1.1.93-1.11C249.31.23,254.91.2,260.51.17c.69,0,1.61-.11,1.71.77.16,1.28-1,1-1.76,1.13-5.73.63-5.76.63-5.76,6.38,0,16.77,0,33.54-.07,50.31C254.62,59.65,255.93,62.47,252.72,60.91Z"/><path class="cls-2" d="M180.89,1.84a122.1,122.1,0,0,0-23.1,0c-3.53-.1-7,.8-10.54.58-2.17-.13-2.9,1.23-3,3.22-.22,3.33.58,6.73-.65,10-.09.25.78-.42,1.19,0,0,.85,0,1.7-.06,2.55a1.16,1.16,0,0,1-1.38,1.21c-.92,0-1.19-.57-1.19-1.38,0-5.4,0-10.8,0-16.2,0-1.76,1.06-1.66,2.25-1.66q25,0,50,0c1.39,0,2.49,0,2.45,1.94-.1,5.11,0,10.23,0,15.35,0,1.24-.15,2.43-1.95,1.57.07-4.26-.66-8.49-.42-12.75.14-2.62-.89-4.15-3.73-3.87C187.38,2.74,184.18,1.52,180.89,1.84Z"/><path class="cls-2" d="M144.76,15.66,143,17.91V3.32c0-1.35.57-2.22,2-2.13,4.24.25,8.56-.79,12.74.65L156,2.7C148.84,4.15,147,10.05,144.76,15.66Z"/><path class="cls-2" d="M180.89,1.84c4.28-1.49,8.7-.38,13.05-.62a1.45,1.45,0,0,1,1.66,1.53c-.23,5.43,1,10.92-.76,16.28-1.67-1.8-.85-4.24-1.68-6.32-2-5-4.62-9.07-10.45-10Z"/><path class="cls-2" d="M210.06,2.06c1.59.69,1.18,2.12,1.18,3.33q0,24.93,0,49.85c0,1.11.25,2.32-.89,3.12q0-26-.11-52C210.24,4.89,210.13,3.48,210.06,2.06Z"/><path class="cls-2" d="M174.15,58.34c-1.32-.91-.9-2.29-.91-3.51q0-24.26,0-48.5c0-1.21-.43-2.61,1-3.47Z"/><path class="cls-2" d="M164.53,59.05a12.45,12.45,0,0,0,10.44.11h8.76l0,1.2H155.27C158.19,58.4,161.45,59.43,164.53,59.05Z"/><path class="cls-2" d="M287.36,46.38c-1.2-.76-.93-2-.93-3.07q0-18.69,0-37.39c0-1.1-.24-2.3.9-3.1Z"/><path class="cls-2" d="M288.15,2a13.47,13.47,0,0,0-10.41.14c-2.41-.37-5,.57-7.26-1.43h25.7C293.64,2.6,290.84,1.83,288.15,2Z"/><path class="cls-2" d="M210.27,58.83c.83,1.53,1.75,1.57,2.78.19h9.19c0,.5,0,1,0,1.5-6.66.92-13.36.21-20.09,0C204.5,58,207.65,59.75,210.27,58.83Z"/><path class="cls-2" d="M84.16,59c1,1.39,1.88,1.36,2.76-.07,3.09.64,6.38-.58,9.39,1.5H75.47C78.71,58.17,81.6,59.59,84.16,59Z"/><path class="cls-2" d="M221.58.44c-2.4,1.47-5.05.37-7.56.7-1.51.2-3.19-.53-4.5.8-2.47-.07-5,.63-7.41-.91C208.57-.13,215.07.1,221.58.44Z"/><path class="cls-2" d="M95.44.36c-2,1.5-4.36.47-6.53.78-1.59.24-3.43-.67-4.73,1H76.33V.36Z"/><path class="cls-2" d="M303.68,61.66c-.69-1.49.17-1.74,1.36-1.56,1.67.26,3.32.61,5,.92C308,62,305.84,61.83,303.68,61.66Z"/><path class="cls-3" d="M43.62,30.7a12.52,12.52,0,0,1-13,12.35A12.35,12.35,0,0,1,18.34,30.42c.06-7.19,5.57-12.42,13-12.3A12.41,12.41,0,0,1,43.62,30.7Z"/><path class="cls-1" d="M43.62,30.7a12.52,12.52,0,0,1-13,12.35A12.35,12.35,0,0,1,18.34,30.42c.06-7.19,5.57-12.42,13-12.3A12.41,12.41,0,0,1,43.62,30.7Z"/></svg>