<svg id="Layer_1" data-name="Layer 1" xmlns="http://www.w3.org/2000/svg" viewBox="0 0 224.61 100.16"><defs><style>.cls-1{fill:#87888c;}</style></defs><path class="cls-1" d="M171.45,71.16c1.18-7.57,2.65-17.14,4.16-26.7,2.11-13.33,4.35-26.64,6.3-40C182.39,1.16,183.51-.1,187,0c9,.27,8.59-1,7.05,8.41-3.32,20.46-6.44,41-9.9,61.39-2.29,13.51,9.55,19.87,17.68,17.35,6.28-2,10.84-8.06,10.34-14.45-.53-6.72-5.82-12.43-12.51-12.92-3.6-.27-5.12-1.37-3.87-5a7.79,7.79,0,0,0,.21-1.46c.88-6.77,1.28-7,8-5.44,13.94,3.32,22.41,16,20.17,30.24-2.1,13.32-14.79,23-28.54,21.78C181.59,98.64,171.26,87.28,171.45,71.16Z"/><path class="cls-1" d="M149.26,100.11c-6.24,0-6.22,0-5.24-6.08s1.93-12.1,2.87-18.16a14.12,14.12,0,0,0-11.31-16c-7.67-1.29-15.06,3.48-16.55,10.68A14.08,14.08,0,0,0,129.8,87.25a7.25,7.25,0,0,0,2.16.42c3.24-.26,3.79,1.5,3.28,4.14-.16.84-.4,1.67-.48,2.52-.67,6.42-.06,6.47-7.35,5.15C113.46,96.94,104,82.74,106.58,69,109.3,54.76,123,45.08,137.11,47.44a26.47,26.47,0,0,1,22.14,29.89c-.82,5.45-1.71,10.89-2.5,16.35C155.81,100.11,155.84,100.11,149.26,100.11Z"/><path class="cls-1" d="M27.73,25.89c7.41,0,14.82.14,22.22-.06,3.53-.09,4.37,1.37,3.71,4.45-1.86,8.68.63,8.06-9.46,8a48.84,48.84,0,0,1-6.29,0c-3.62-.5-5,1-5.48,4.49-2.66,17.72-5.56,35.39-8.27,53.1-.44,2.89-1.41,4.28-4.68,4.15-9-.35-9,1.39-7.37-8.47,2.72-16.46,5.17-33,7.87-49.43.46-2.84-.38-3.87-3.18-3.81-4.44.08-8.89,0-13.33,0-3,.06-3.85-1.13-3.33-4.09,1.47-8.34,1.37-8.36,9.82-8.36Z"/><path class="cls-1" d="M94.89,25.89c1,0,2,.05,3,0,2.6-.13,3.54,1,3.11,3.59Q95.5,63.07,90.2,96.68c-.38,2.48-1.38,3.3-3.81,3.29-11.15,0-9.44.59-8-8.9C81.49,70.83,84.8,50.62,88,30.39,88.76,25.89,88.77,25.89,94.89,25.89Z"/><path class="cls-1" d="M56.6,66.5a6.33,6.33,0,1,1-.13-12.65A6.33,6.33,0,1,1,56.6,66.5Z"/><path class="cls-1" d="M59.74,80.94A6.36,6.36,0,0,1,53,87.15a6.33,6.33,0,1,1,.61-12.65A6.29,6.29,0,0,1,59.74,80.94Z"/></svg>