<svg id="Layer_1" data-name="Layer 1" xmlns="http://www.w3.org/2000/svg" viewBox="0 0 455.04 57.36"><defs><style>.cls-1{fill:#fefefe;}.cls-2{fill:#87888c;}.cls-3{fill:#88898c;}.cls-4{fill:#88888c;}.cls-5{fill:#88898d;}.cls-6{fill:#fcfcfc;}</style></defs><path class="cls-1" d="M298.78,57.36H0V12.68a2.36,2.36,0,0,1,1.71-.38c2.44,0,4.88,0,7.32,0,1.89,0,2.15.26,2.15,2.14q0,13.32,0,26.63c0,3.3-.36,3,3,3,3.6,0,3.14.38,3.15-3.1,0-8.52,0-17,0-25.55v-.84c0-2.05.23-2.27,2.26-2.28,2.36,0,4.72,0,7.08,0,1.3,0,1.43-.16,1.45-1.46,0-.88,0-1.75,0-2.63,0-.73-.32-1.1-1.08-1.1-.4,0-.8,0-1.2,0-7.76,0-15.51,0-23.27,0-.88,0-1.74.17-2.62.11V0Q227,0,454,0c.8,0,1.07.09,1.07,1q-.06,27.71,0,55.42v.93H301.66c.08-.65.62-.51,1-.55,6.24-.71,10.26-4.48,11.34-10.68a35,35,0,0,0,.54-6.05c0-6.41,0-12.82,0-19.23,0-1.58,0-1.62-1.59-1.63-1,0-2.08,0-3.12,0-.74,0-1.15.25-1.11,1a4,4,0,0,1,0,.6c0,.31,0,.68-.33.85s-.7-.1-.94-.34c-3.75-3.76-11.68-3.55-15.74.26a12.38,12.38,0,0,0-4,8.29,14,14,0,0,0,2.8,10.35,12.25,12.25,0,0,0,15.09,3,14.87,14.87,0,0,0,2.08-1.62c.54-.45.91-.37,1.06.39.67,3.29-1.67,8-4.74,9.17a8.31,8.31,0,0,1-9.68-2.33,1.52,1.52,0,0,0-2.22-.49,23.52,23.52,0,0,1-2.39,1.11c-.84.32-.89.8-.42,1.47a12.87,12.87,0,0,0,8,5.69C297.76,56.73,298.53,56.54,298.78,57.36Z"/><path class="cls-2" d="M298.78,57.36c-1.13-.32-2.3-.56-3.4-1a13,13,0,0,1-6.76-5.78c-.37-.63-.38-.92.35-1.22,1.29-.53,2.55-1.13,3.8-1.74.58-.29.84-.17,1.2.37,2.86,4.21,9.28,4.75,12.34,1,1.79-2.17,2.08-4.81,2.06-7.74A11.93,11.93,0,0,1,304.82,44a12.51,12.51,0,0,1-17.31-9.28c-.72-4.32-.13-8.36,2.67-11.94,4.37-5.58,13.74-5.81,17.77-1.26a2.59,2.59,0,0,0,.43.28c0-.81,0-1.51,0-2.2,0-.52.19-.7.7-.69,1.68,0,3.36,0,5,0,.57,0,.81.21.74.77a1.92,1.92,0,0,0,0,.24c0,7.44,0,14.89-.05,22.33a19.23,19.23,0,0,1-1.5,7.43c-2,4.64-5.63,7-10.61,7.54-.35,0-.73,0-1,.2Z"/><path class="cls-3" d="M0,7.19c.22-.48.62-.52,1.08-.52h26.5c.72,0,1,.19,1,.94-.05,1.39-.05,2.78,0,4.17,0,.78-.29.92-1,.91-2.75,0-5.51,0-8.27,0-1.78,0-1.56-.24-1.56,1.61,0,9.63,0,19.26,0,28.89,0,1.07-.29,1.37-1.33,1.3a36.62,36.62,0,0,0-4.32,0c-1,.06-1.26-.26-1.26-1.25,0-9.55,0-19.1,0-28.65,0-1.9,0-1.9-1.89-1.9H0Z"/><path class="cls-2" d="M378.41,51.18c-12.49,0-23.5-9-25.26-21.1C351.43,18.17,357.33,6,370.38,1.46c6.41-2.23,12.59-1,18.51,2a38.2,38.2,0,0,1,8.53,6.3q12.34,11.41,24.68,22.83a27.37,27.37,0,0,0,10.72,6.52,15.59,15.59,0,0,0,18.87-8.44A4.83,4.83,0,0,1,452,30a1.43,1.43,0,0,1,1.91-.75,1.46,1.46,0,0,1,.73,1.82,25.31,25.31,0,0,1-3.06,7.85,23.5,23.5,0,0,1-31,9.84,35.41,35.41,0,0,1-9.49-6.57c-8.79-8.12-17.51-16.31-26.4-24.31-5.47-4.91-11.94-6.74-19.1-4.45a14.82,14.82,0,0,0-9.79,16.3,17.91,17.91,0,0,0,1.68,5.56,9.94,9.94,0,0,0,8.74,5.57c6.15.4,11.51-1.85,16.42-5.27A72.79,72.79,0,0,0,391,28.44c.73-.69,1.15-.77,1.92,0,2.86,2.84,5.8,5.59,8.72,8.36.52.49.9,1,.22,1.6a93.87,93.87,0,0,1-8.59,7.6C388.73,49.23,383.77,51.3,378.41,51.18Z"/><path class="cls-2" d="M123.62,41.32c-3.69,3.76-7.9,4.45-12.44,3-4.82-1.52-7.58-5.06-8.42-9.93s.21-9.53,4.14-13.14c4.38-4,12.64-4,16.33.25,0,.06.13.08.26.17a1.82,1.82,0,0,0,.13-1.12c0-4.74,0-9.48,0-14.21,0-.86.2-1.22,1.11-1.2,1.44,0,2.88,0,4.31,0,1,0,1.1.54,1.09,1.35q0,16.23,0,32.47c0,1.56,0,3.11,0,4.66,0,.68-.21.9-.89.88q-2.4-.06-4.8,0c-.62,0-.86-.2-.82-.82S123.62,42.24,123.62,41.32Z"/><path class="cls-2" d="M432.85.36c8.28.56,15.56,4.68,19.89,13.39a21.59,21.59,0,0,1,2,7.06c.16,1.24-.28,2-1.17,2.13s-1.43-.37-1.75-1.55a17.59,17.59,0,0,0-2.47-5.77,10.5,10.5,0,0,0-9.54-4.44c-5,.18-9.28,2.16-13.25,4.92a81.57,81.57,0,0,0-8.93,7.57c-.52.49-.91.68-1.5.11q-4.61-4.37-9.24-8.68c-.48-.44-.72-.77-.1-1.32a96.77,96.77,0,0,1,10.28-8.56A26.62,26.62,0,0,1,432.85.36Z"/><path class="cls-2" d="M184.31,25.53c0-5.89,0-11.78,0-17.67,0-.92.21-1.21,1.18-1.21q10.49.07,21,0c1,0,1.23.31,1.18,1.22a28.55,28.55,0,0,0,0,3.7c.05.9-.23,1.14-1.13,1.13-4.72,0-9.44,0-14.16,0-1.14,0-1.37.35-1.35,1.4.08,2.58.06,5.17,0,7.76,0,.79.25,1,1,1,3.91,0,7.83,0,11.75,0,1.77,0,1.79,0,1.8,1.8,0,1.07-.06,2.15,0,3.22.06.89-.22,1.15-1.13,1.14-4.08-.05-8.16,0-12.24-.05-1,0-1.27.28-1.24,1.26.08,2.35.07,4.7,0,7.05,0,1,.21,1.28,1.24,1.27,4.87-.06,9.75,0,14.63-.06,1.12,0,1.38.4,1.36,1.35,0,1.2-.07,2.4,0,3.58.06.92-.26,1.13-1.15,1.13-5.95,0-11.91,0-17.87,0-1.28,0-2.56-.07-3.84,0-.95.06-1.11-.3-1.1-1.15C184.33,37.4,184.31,31.47,184.31,25.53Z"/><path class="cls-2" d="M57.48,45a13.68,13.68,0,0,1-7.42-1.92c-.56-.34-1-.41-1.41.16S47.44,44.38,46.92,45s-1,.6-1.48,0-1.6-1.11-1.57-1.83,1-1.15,1.55-1.72a4,4,0,0,1,.51-.5c.69-.48.56-.92.13-1.55A13.67,13.67,0,0,1,46,23.92c2.78-4,6.77-5.64,11.53-5.63a13.77,13.77,0,0,1,7.59,2.17c.42.27.7.27,1-.11a4.11,4.11,0,0,1,.59-.59c.6-.5,1.07-1.61,1.73-1.48.92.19,1.46,1.28,2.2,1.94.37.33,0,.56-.19.78-.68.72-1.81,1.37-1.93,2.18s.89,1.65,1.29,2.53C73.7,34.35,68.34,44.83,57.48,45Z"/><path class="cls-2" d="M246.55,33.92a6,6,0,0,0,4.87,5c3.29.61,6.29.09,8.7-2.43.37-.39.67-.46,1.1-.11,1.07.84,2.13,1.68,3.23,2.46.58.41.26.72,0,1.06a12.41,12.41,0,0,1-7.34,4.6A14.5,14.5,0,0,1,245.81,43c-4.81-3-6.54-7.62-5.94-13,.69-6.24,4.61-10.39,10.78-11.43,8.87-1.49,15.88,4.16,15.76,12.91-.05,3.07.25,2.47-2.47,2.49-5.36,0-10.72,0-16.07,0Z"/><path class="cls-2" d="M150.23,33.92c-3,0-5.91,0-8.87,0-1.12,0-1.18.1-.76,1.17,1,2.65,3.19,3.8,5.85,4a8.67,8.67,0,0,0,7.43-2.54c.44-.46.72-.55,1.26-.09.93.81,1.94,1.53,2.94,2.24.56.4.57.71.15,1.25a12,12,0,0,1-6.57,4.33c-5,1.33-9.76.82-13.82-2.7-3.21-2.78-4.32-6.44-4.25-10.57.16-7.91,6.66-13.15,14.27-12.76,5.9.3,10.91,4.08,12.07,10a13.47,13.47,0,0,1,.23,4.74c-.12.73-.36.9-1,.89C156.15,33.9,153.19,33.92,150.23,33.92Z"/><path class="cls-2" d="M218.36,22.37c3.28-4.52,8.93-4.76,12.47-3.23s5,4.57,5.55,8.18.13,7,.21,10.49c0,1.9,0,3.82,0,5.72,0,.75-.23,1-1,.94-1.52,0-3-.06-4.56,0-.84,0-1-.31-1-1,0-4.3,0-8.59,0-12.89,0-2.26-.73-4.24-2.88-5.38-3.78-2-8.75.81-8.85,5.07s-.07,8.68,0,13c0,1-.31,1.28-1.28,1.23a34.54,34.54,0,0,0-4.07,0c-.89.05-1.16-.2-1.15-1.11.05-4.5,0-9,0-13.49,0-3.34,0-6.69,0-10,0-.78.22-1,1-1,1.47,0,3,.06,4.43,0,.89,0,1.1.32,1,1.11S218.36,21.37,218.36,22.37Z"/><path class="cls-2" d="M81,22.25c3.85-4.09,8.59-5.09,13-2.87,2.84,1.43,4.19,3.9,4.86,6.86A17.92,17.92,0,0,1,99.26,30c0,4.49,0,9,0,13.49,0,.71-.19,1-.94.95-1.48,0-3-.08-4.44,0-1,.06-1.09-.34-1.08-1.17,0-4.14,0-8.28,0-12.42a8.87,8.87,0,0,0-.31-2.35c-.76-2.78-3-4.2-6-3.91a5.75,5.75,0,0,0-5.39,5.16C81,33.41,81.06,37,81,40.65c0,1,0,2.07,0,3.11,0,.5-.16.71-.69.7-1.68,0-3.36,0-5,0-.62,0-.71-.28-.71-.8q0-12,0-24c0-.62.21-.83.84-.82,1.55,0,3.11,0,4.67,0,.71,0,.91.3.91.91Z"/><path class="cls-2" d="M32.64,23.63a13.49,13.49,0,0,1,2.43-3.49,8.7,8.7,0,0,1,8.55-1.26c.38.19.59.38.5.81-.35,1.59-.71,3.18-1,4.77-.14.7-.42.64-1,.43-4.06-1.52-7.07-.05-8.48,4a21.5,21.5,0,0,0-.94,6.46c-.06,2.67,0,5.34,0,8,0,.8-.16,1.14-1,1.1-1.51-.07-3,0-4.55,0-.66,0-.92-.15-.91-.86q0-11.94,0-23.89c0-.57.11-.88.79-.87,1.63,0,3.28,0,4.91,0,.57,0,.78.19.77.76C32.62,21,32.64,22.29,32.64,23.63Z"/><path class="cls-4" d="M276.22,23.48a34.14,34.14,0,0,1,2-3c2.3-2.67,6.35-2.51,8.88-1.66a.73.73,0,0,1,.56,1c-.34,1.47-.64,2.95-.95,4.42-.13.6-.25.94-1.09.62-4-1.53-7.05-.06-8.42,3.93a19.9,19.9,0,0,0-1,6.22c0,2.82,0,5.65,0,8.48,0,.71-.17,1-.93.95-1.48,0-3-.06-4.44,0-.89,0-1.16-.21-1.15-1.12.06-3.58,0-7.16,0-10.75,0-4.17,0-8.35,0-12.53,0-1,.31-1.29,1.28-1.24,1.44.08,2.88.05,4.32,0,.68,0,.91.2.89.88C276.19,21,276.22,22.23,276.22,23.48Z"/><path class="cls-2" d="M170.31,23.26A8.09,8.09,0,0,1,174.1,19a9.34,9.34,0,0,1,6.88-.12c.4.12.59.31.49.78-.36,1.66-.69,3.33-1,5-.11.54-.4.46-.79.29a8,8,0,0,0-3-.63,5.21,5.21,0,0,0-4.87,2.89,13.17,13.17,0,0,0-1.61,6.4c-.09,3.26-.07,6.52,0,9.78,0,.82-.19,1.13-1.06,1.09-1.51-.07-3,0-4.55,0-.66,0-.91-.16-.9-.86q0-11.94,0-23.87c0-.66.19-.91.88-.89,1.55,0,3.11,0,4.67,0,.65,0,.86.26.86.83v3.55Z"/><path class="cls-3" d="M326.35,31.67c0,3.86,0,7.72,0,11.58,0,1-.3,1.28-1.27,1.23a34.71,34.71,0,0,0-4.08,0c-.89.05-1.15-.2-1.14-1.11.05-4.62,0-9.24,0-13.86,0-3.22,0-6.44,0-9.67,0-.79.24-1,1-1,1.44,0,2.88.06,4.32,0,.88,0,1.16.21,1.15,1.13C326.32,23.87,326.35,27.77,326.35,31.67Z"/><path class="cls-5" d="M345.85,12.71a6.94,6.94,0,0,1-7.13,7.17,7,7,0,0,1-7.12-7.08,7.21,7.21,0,0,1,7.09-7.3A7.11,7.11,0,0,1,345.85,12.71Z"/><path class="cls-5" d="M323.14,13.69a4,4,0,0,1-4.22-3.91,4.2,4.2,0,0,1,8.38.05A4,4,0,0,1,323.14,13.69Z"/><path class="cls-1" d="M300.89,24.31a7.16,7.16,0,0,1,7.35,7.28A7.31,7.31,0,0,1,300.93,39a7.19,7.19,0,0,1-7.19-7.47A7,7,0,0,1,300.89,24.31Z"/><path class="cls-1" d="M116.13,24.31a7.23,7.23,0,0,1,7.43,7.25,7.35,7.35,0,0,1-7.45,7.4A7.26,7.26,0,0,1,109,31.53,7.07,7.07,0,0,1,116.13,24.31Z"/><path class="cls-1" d="M56.94,24.33a7.53,7.53,0,0,1,3.27.48c.7.3,1,.51.29,1.2-2.48,2.47-4.91,5-7.36,7.49-.44.46-.91.9-1.33,1.38s-.74.54-1.06-.16a7.44,7.44,0,0,1,4.42-10.16A6.34,6.34,0,0,1,56.94,24.33Z"/><path class="cls-1" d="M57.12,39a6.65,6.65,0,0,1-2.64-.53c-.66-.26-.75-.51-.2-1.05,2.18-2.16,4.33-4.37,6.48-6.56.75-.77,1.51-1.53,2.22-2.33.48-.54.75-.57,1,.17A7.41,7.41,0,0,1,57.12,39Z"/><path class="cls-1" d="M253.19,29.41c-2,0-3.91,0-5.86,0-.84,0-.91-.23-.67-1,1.17-3.6,4.42-4.94,7.86-4.46a5.88,5.88,0,0,1,5.24,4.22c.26.85.21,1.24-.83,1.2C257,29.36,255.1,29.41,253.19,29.41Z"/><path class="cls-1" d="M147.11,29.41c-2,0-3.91-.05-5.87,0-1,0-1-.3-.73-1.09A6.27,6.27,0,0,1,145.85,24c3.65-.62,6.85,1.22,7.77,4.4.22.78.13,1.06-.75,1C151,29.37,149,29.41,147.11,29.41Z"/><path class="cls-1" d="M338.69,18.62a6,6,0,0,1-5.83-5.89,5.87,5.87,0,1,1,5.83,5.89Z"/><path class="cls-5" d="M341.63,16.21c-1,.11-1.69.27-2.21-.6a4.35,4.35,0,0,0-1.36-1.7,2.57,2.57,0,0,0-.18,1.53c0,.57-.11.87-.78.87s-.88-.28-.86-.92q0-2.62,0-5.25c0-.61.17-.88.81-.84s1.44,0,2.16,0a2.07,2.07,0,0,1,2.16,1.55,2.16,2.16,0,0,1-.68,2.59c-.74.5-.49.81-.13,1.28S341.2,15.61,341.63,16.21Z"/><path class="cls-6" d="M337.88,11.64c-.09-.59.05-1,.8-.91s1.23.14,1.19,1-.55.94-1.24,1S337.84,12.21,337.88,11.64Z"/></svg>