<svg id="Layer_1" data-name="Layer 1" xmlns="http://www.w3.org/2000/svg" viewBox="0 0 455.04 57.36"><defs><style>.cls-1{fill:#fefefe;}.cls-2{fill:#87888c;}.cls-3{fill:#88898c;}.cls-4{fill:#88888c;}.cls-5{fill:#88898d;}</style></defs><path class="cls-1" d="M27.56,12.69c-2.75,0-5.51,0-8.27,0-1.78,0-1.56-.24-1.56,1.61,0,9.63,0,19.26,0,28.89,0,1.07-.29,1.37-1.33,1.3a36.62,36.62,0,0,0-4.32,0c-1,.06-1.26-.26-1.26-1.25,0-9.55,0-19.1,0-28.65,0-1.9,0-1.9-1.89-1.9H0a2.36,2.36,0,0,1,1.71-.38c2.44,0,4.88,0,7.32,0,1.89,0,2.15.26,2.15,2.14q0,13.32,0,26.63c0,3.3-.36,3,3,3,3.6,0,3.14.38,3.15-3.1,0-8.52,0-17,0-25.55v-.84c0-2.05.23-2.27,2.26-2.28,2.36,0,4.72,0,7.08,0,1.3,0,1.43-.16,1.45-1.46,0-.88,0-1.75,0-2.63,0-.73-.32-1.1-1.08-1.1-.4,0-.8,0-1.2,0-7.76,0-15.51,0-23.27,0-.88,0-1.74.17-2.62.11.22-.48.62-.52,1.08-.52h26.5c.72,0,1,.19,1,.94-.05,1.39-.05,2.78,0,4.17C28.58,12.56,28.26,12.7,27.56,12.69Z"/><path class="cls-1" d="M44.12,19.69c-.35,1.59-.71,3.18-1,4.77-.14.7-.42.64-1,.43-4.06-1.52-7.07-.05-8.48,4a21.5,21.5,0,0,0-.94,6.46c-.06,2.67,0,5.34,0,8,0,.8-.16,1.14-1,1.1-1.51-.07-3,0-4.55,0-.66,0-.92-.15-.91-.86q0-11.94,0-23.89c0-.57.11-.88.79-.87,1.63,0,3.28,0,4.91,0,.57,0,.78.19.77.76,0,1.34,0,2.68,0,4a13.49,13.49,0,0,1,2.43-3.49,8.7,8.7,0,0,1,8.55-1.26C44,19.07,44.21,19.26,44.12,19.69Z"/><path class="cls-1" d="M69.77,25.71c-.4-.88-1.4-1.77-1.29-2.53s1.25-1.46,1.93-2.18c.21-.22.56-.45.19-.78-.74-.66-1.28-1.75-2.2-1.94-.66-.13-1.13,1-1.73,1.48a4.11,4.11,0,0,0-.59.59c-.31.38-.59.38-1,.11a13.77,13.77,0,0,0-7.59-2.17c-4.76,0-8.75,1.68-11.53,5.63a13.67,13.67,0,0,0,.11,15.46c.43.63.56,1.07-.13,1.55a4,4,0,0,0-.51.5c-.55.57-1.52,1.13-1.55,1.72s1.06,1.18,1.57,1.83.92.73,1.48,0,1.2-1.17,1.73-1.81.85-.5,1.41-.16A13.68,13.68,0,0,0,57.48,45C68.34,44.83,73.7,34.35,69.77,25.71Zm-18,9.17c-.47.54-.74.54-1.06-.16a7.44,7.44,0,0,1,4.42-10.16,6.34,6.34,0,0,1,1.77-.23,7.53,7.53,0,0,1,3.27.48c.7.3,1,.51.29,1.2-2.48,2.47-4.91,5-7.36,7.49C52.7,34,52.23,34.4,51.81,34.88ZM57.12,39a6.65,6.65,0,0,1-2.64-.53c-.66-.26-.75-.51-.2-1.05,2.18-2.16,4.33-4.37,6.48-6.56.75-.77,1.51-1.53,2.22-2.33.48-.54.75-.57,1,.17A7.41,7.41,0,0,1,57.12,39Z"/><path class="cls-1" d="M99.26,30c0,4.49,0,9,0,13.49,0,.71-.19,1-.94.95-1.48,0-3-.08-4.44,0-1,.06-1.09-.34-1.08-1.17,0-4.14,0-8.28,0-12.42a8.87,8.87,0,0,0-.31-2.35c-.76-2.78-3-4.2-6-3.91a5.75,5.75,0,0,0-5.39,5.16C81,33.41,81.06,37,81,40.65c0,1,0,2.07,0,3.11,0,.5-.16.71-.69.7-1.68,0-3.36,0-5,0-.62,0-.71-.28-.71-.8q0-12,0-24c0-.62.21-.83.84-.82,1.55,0,3.11,0,4.67,0,.71,0,.91.3.91.91v2.49c3.85-4.09,8.59-5.09,13-2.87,2.84,1.43,4.19,3.9,4.86,6.86A17.92,17.92,0,0,1,99.26,30Z"/><path class="cls-1" d="M130.1,38.93q0-16.23,0-32.47c0-.81,0-1.39-1.09-1.35-1.43.06-2.87.08-4.31,0-.91,0-1.12.34-1.11,1.2,0,4.73,0,9.47,0,14.21a1.82,1.82,0,0,1-.13,1.12c-.13-.09-.21-.11-.26-.17-3.69-4.23-12-4.26-16.33-.25-3.93,3.61-5,8.12-4.14,13.14s3.6,8.41,8.42,9.93c4.54,1.44,8.75.75,12.44-3,0,.92,0,1.63,0,2.33s.2.83.82.82q2.4-.06,4.8,0c.68,0,.9-.2.89-.88C130.07,42,130.1,40.49,130.1,38.93Zm-14,0A7.26,7.26,0,0,1,109,31.53a7.07,7.07,0,0,1,7.15-7.22,7.23,7.23,0,0,1,7.43,7.25A7.35,7.35,0,0,1,116.11,39Z"/><path class="cls-1" d="M159.93,28.3c-1.16-5.92-6.17-9.7-12.07-10-7.61-.39-14.11,4.85-14.27,12.76-.07,4.13,1,7.79,4.25,10.57,4.06,3.52,8.8,4,13.82,2.7A12,12,0,0,0,158.23,40c.42-.54.41-.85-.15-1.25-1-.71-2-1.43-2.94-2.24-.54-.46-.82-.37-1.26.09a8.67,8.67,0,0,1-7.43,2.54c-2.66-.25-4.81-1.4-5.85-4-.42-1.07-.36-1.17.76-1.17,3,0,5.91,0,8.87,0s5.92,0,8.88,0c.69,0,.93-.16,1-.89A13.47,13.47,0,0,0,159.93,28.3Zm-7.06,1.12c-1.92-.05-3.84,0-5.76,0s-3.91-.05-5.87,0c-1,0-1-.3-.73-1.09A6.27,6.27,0,0,1,145.85,24c3.65-.62,6.85,1.22,7.77,4.4C153.84,29.17,153.75,29.45,152.87,29.42Z"/><path class="cls-1" d="M181.47,19.65c-.36,1.66-.69,3.33-1,5-.11.54-.4.46-.79.29a8,8,0,0,0-3-.63,5.21,5.21,0,0,0-4.87,2.89,13.17,13.17,0,0,0-1.61,6.4c-.09,3.26-.07,6.52,0,9.78,0,.82-.19,1.13-1.06,1.09-1.51-.07-3,0-4.55,0-.66,0-.91-.16-.9-.86q0-11.94,0-23.87c0-.66.19-.91.88-.89,1.55,0,3.11,0,4.67,0,.65,0,.86.26.86.83v3.55l.27,0A8.09,8.09,0,0,1,174.1,19a9.34,9.34,0,0,1,6.88-.12C181.38,19,181.57,19.18,181.47,19.65Z"/><path class="cls-1" d="M208.25,43.35c.06.92-.26,1.13-1.15,1.13-5.95,0-11.91,0-17.87,0-1.28,0-2.56-.07-3.84,0-.95.06-1.11-.3-1.1-1.15,0-5.93,0-11.86,0-17.8s0-11.78,0-17.67c0-.92.21-1.21,1.18-1.21q10.49.07,21,0c1,0,1.23.31,1.18,1.22a28.55,28.55,0,0,0,0,3.7c.05.9-.23,1.14-1.13,1.13-4.72,0-9.44,0-14.16,0-1.14,0-1.37.35-1.35,1.4.08,2.58.06,5.17,0,7.76,0,.79.25,1,1,1,3.91,0,7.83,0,11.75,0,1.77,0,1.79,0,1.8,1.8,0,1.07-.06,2.15,0,3.22.06.89-.22,1.15-1.13,1.14-4.08-.05-8.16,0-12.24-.05-1,0-1.27.28-1.24,1.26.08,2.35.07,4.7,0,7.05,0,1,.21,1.28,1.24,1.27,4.87-.06,9.75,0,14.63-.06,1.12,0,1.38.4,1.36,1.35C208.21,41,208.17,42.17,208.25,43.35Z"/><path class="cls-1" d="M236.59,37.81c0,1.9,0,3.82,0,5.72,0,.75-.23,1-1,.94-1.52,0-3-.06-4.56,0-.84,0-1-.31-1-1,0-4.3,0-8.59,0-12.89,0-2.26-.73-4.24-2.88-5.38-3.78-2-8.75.81-8.85,5.07s-.07,8.68,0,13c0,1-.31,1.28-1.28,1.23a34.54,34.54,0,0,0-4.07,0c-.89.05-1.16-.2-1.15-1.11.05-4.5,0-9,0-13.49,0-3.34,0-6.69,0-10,0-.78.22-1,1-1,1.47,0,3,.06,4.43,0,.89,0,1.1.32,1,1.11s0,1.42,0,2.42c3.28-4.52,8.93-4.76,12.47-3.23s5,4.57,5.55,8.18S236.51,34.31,236.59,37.81Z"/><path class="cls-1" d="M250.65,18.51c-6.17,1-10.09,5.19-10.78,11.43-.6,5.4,1.13,10,5.94,13a14.5,14.5,0,0,0,11.31,1.57,12.41,12.41,0,0,0,7.34-4.6c.25-.34.57-.65,0-1.06-1.1-.78-2.16-1.62-3.23-2.46-.43-.35-.73-.28-1.1.11-2.41,2.52-5.41,3-8.7,2.43a6,6,0,0,1-4.87-5h1.32c5.35,0,10.71,0,16.07,0,2.72,0,2.42.58,2.47-2.49C266.53,22.67,259.52,17,250.65,18.51Zm8.28,10.91c-1.91-.06-3.83,0-5.74,0s-3.91,0-5.86,0c-.84,0-.91-.23-.67-1,1.17-3.6,4.42-4.94,7.86-4.46a5.88,5.88,0,0,1,5.24,4.22C260,29.07,260,29.46,258.93,29.42Z"/><path class="cls-1" d="M287.68,19.85c-.34,1.47-.64,2.95-.95,4.42-.13.6-.25.94-1.09.62-4-1.53-7.05-.06-8.42,3.93a19.9,19.9,0,0,0-1,6.22c0,2.82,0,5.65,0,8.48,0,.71-.17,1-.93.95-1.48,0-3-.06-4.44,0-.89,0-1.16-.21-1.15-1.12.06-3.58,0-7.16,0-10.75,0-4.17,0-8.35,0-12.53,0-1,.31-1.29,1.28-1.24,1.44.08,2.88.05,4.32,0,.68,0,.91.2.89.88-.05,1.25,0,2.5,0,3.75a34.14,34.14,0,0,1,2-3c2.3-2.67,6.35-2.51,8.88-1.66A.73.73,0,0,1,287.68,19.85Z"/><path class="cls-1" d="M287.51,34.67c-.72-4.32-.13-8.36,2.67-11.94,4.37-5.58,13.74-5.81,17.77-1.26a1.93,1.93,0,0,0,.37.24c-.38.18-.67-.12-.9-.35-3.75-3.76-11.68-3.55-15.74.26a12.38,12.38,0,0,0-4,8.29,14,14,0,0,0,2.8,10.35,12.25,12.25,0,0,0,15.09,3,14.87,14.87,0,0,0,2.08-1.62c.29-.24.53-.33.71-.25a11.72,11.72,0,0,1-3.5,2.6A12.51,12.51,0,0,1,287.51,34.67Z"/><path class="cls-1" d="M289.22,50.92a12.87,12.87,0,0,0,8,5.69c.56.12,1.33-.07,1.58.75-1.13-.32-2.3-.56-3.4-1a13,13,0,0,1-6.76-5.78c-.37-.63-.38-.92.35-1.22,1.29-.53,2.55-1.13,3.8-1.74.58-.29.84-.17,1.2.37,2.86,4.21,9.28,4.75,12.34,1,1.77-2.15,2.07-4.76,2.06-7.66a.92.92,0,0,1,.3.61c.67,3.29-1.67,8-4.74,9.17a8.31,8.31,0,0,1-9.68-2.33,1.52,1.52,0,0,0-2.22-.49,23.52,23.52,0,0,1-2.39,1.11C288.8,49.77,288.75,50.25,289.22,50.92Z"/><path class="cls-1" d="M314.86,19.62a1.92,1.92,0,0,0,0,.24c0,7.44,0,14.89-.05,22.33a19.23,19.23,0,0,1-1.5,7.43c-2,4.64-5.63,7-10.61,7.54-.35,0-.73,0-1,.2.08-.65.62-.51,1-.55,6.24-.71,10.26-4.48,11.34-10.68a35,35,0,0,0,.54-6.05c0-6.41,0-12.82,0-19.23,0-1.58,0-1.62-1.59-1.63-1,0-2.08,0-3.12,0-.74,0-1.15.25-1.11,1a4,4,0,0,1,0,.6c0,.3,0,.66-.31.84,0-.79,0-1.47,0-2.14s.19-.7.7-.69c1.68,0,3.36,0,5,0C314.69,18.84,314.93,19.06,314.86,19.62Z"/><path class="cls-1" d="M326.37,20c-.05,3.9,0,7.8,0,11.7s0,7.72,0,11.58c0,1-.3,1.28-1.27,1.23a34.71,34.71,0,0,0-4.08,0c-.89.05-1.15-.2-1.14-1.11.05-4.62,0-9.24,0-13.86,0-3.22,0-6.44,0-9.67,0-.79.24-1,1-1,1.44,0,2.88.06,4.32,0C326.1,18.8,326.38,19.05,326.37,20Z"/><path class="cls-1" d="M327.3,9.83a4.2,4.2,0,0,1-8.38-.05,4.2,4.2,0,0,1,8.38.05Z"/><path class="cls-1" d="M340.56,14.72c-.36-.47-.61-.78.13-1.28a2.16,2.16,0,0,0,.68-2.59,2.07,2.07,0,0,0-2.16-1.55c-.72,0-1.44,0-2.16,0s-.82.23-.81.84q0,2.63,0,5.25c0,.64.14.93.86.92s.79-.3.78-.87a2.57,2.57,0,0,1,.18-1.53,4.35,4.35,0,0,1,1.36,1.7c.52.87,1.22.71,2.21.6C341.2,15.61,340.89,15.16,340.56,14.72Zm-1.93-2.06c-.82.05-.79-.45-.75-1s.05-1,.8-.91,1.23.14,1.19,1S339.32,12.63,338.63,12.66Z"/><path class="cls-1" d="M338.69,5.5a7.21,7.21,0,0,0-7.09,7.3,7,7,0,0,0,7.12,7.08,6.94,6.94,0,0,0,7.13-7.17A7.11,7.11,0,0,0,338.69,5.5Zm0,13.12a6,6,0,0,1-5.83-5.89,5.87,5.87,0,1,1,5.83,5.89Z"/><path class="cls-1" d="M454.66,31.06a25.31,25.31,0,0,1-3.06,7.85,23.5,23.5,0,0,1-31,9.84,35.41,35.41,0,0,1-9.49-6.57c-8.79-8.12-17.51-16.31-26.4-24.31-5.47-4.91-11.94-6.74-19.1-4.45a14.82,14.82,0,0,0-9.79,16.3,17.91,17.91,0,0,0,1.68,5.56,9.94,9.94,0,0,0,8.74,5.57c6.15.4,11.51-1.85,16.42-5.27A72.79,72.79,0,0,0,391,28.44c.73-.69,1.15-.77,1.92,0,2.86,2.84,5.8,5.59,8.72,8.36.52.49.9,1,.22,1.6a93.87,93.87,0,0,1-8.59,7.6c-4.56,3.24-9.52,5.31-14.88,5.19-12.49,0-23.5-9-25.26-21.1C351.43,18.17,357.33,6,370.38,1.46c6.41-2.23,12.59-1,18.51,2a38.2,38.2,0,0,1,8.53,6.3q12.34,11.41,24.68,22.83a27.37,27.37,0,0,0,10.72,6.52,15.59,15.59,0,0,0,18.87-8.44A4.83,4.83,0,0,1,452,30a1.43,1.43,0,0,1,1.91-.75A1.46,1.46,0,0,1,454.66,31.06Z"/><path class="cls-1" d="M406.8,13.78a96.77,96.77,0,0,1,10.28-8.56A26.62,26.62,0,0,1,432.85.36c8.28.56,15.56,4.68,19.89,13.39a21.59,21.59,0,0,1,2,7.06c.16,1.24-.28,2-1.17,2.13s-1.43-.37-1.75-1.55a17.59,17.59,0,0,0-2.47-5.77,10.5,10.5,0,0,0-9.54-4.44c-5,.18-9.28,2.16-13.25,4.92a81.57,81.57,0,0,0-8.93,7.57c-.52.49-.91.68-1.5.11q-4.61-4.37-9.24-8.68C406.42,14.66,406.18,14.33,406.8,13.78Z"/><path class="cls-2" d="M314.12,18.85c-1.68,0-3.36,0-5,0-.51,0-.73.17-.7.69s0,1.35,0,2.14v.06l-.06,0a1.93,1.93,0,0,1-.37-.24c-4-4.55-13.4-4.32-17.77,1.26-2.8,3.58-3.39,7.62-2.67,11.94A12.51,12.51,0,0,0,304.82,44a11.72,11.72,0,0,0,3.5-2.6l.05-.05v.08c0,2.9-.29,5.51-2.06,7.66-3.06,3.72-9.48,3.18-12.34-1-.36-.54-.62-.66-1.2-.37-1.25.61-2.51,1.21-3.8,1.74-.73.3-.72.59-.35,1.22a13,13,0,0,0,6.76,5.78c1.1.42,2.27.66,3.4,1h2.88c.31-.25.69-.17,1-.2,5-.5,8.61-2.9,10.61-7.54a19.23,19.23,0,0,0,1.5-7.43c.07-7.44,0-14.89.05-22.33a1.92,1.92,0,0,1,0-.24C314.93,19.06,314.69,18.84,314.12,18.85ZM293.74,31.49a7,7,0,0,1,7.15-7.18,7.16,7.16,0,0,1,7.35,7.28A7.31,7.31,0,0,1,300.93,39,7.19,7.19,0,0,1,293.74,31.49Z"/><path class="cls-3" d="M28.55,11.78c0,.78-.29.92-1,.91-2.75,0-5.51,0-8.27,0-1.78,0-1.56-.24-1.56,1.61,0,9.63,0,19.26,0,28.89,0,1.07-.29,1.37-1.33,1.3a36.62,36.62,0,0,0-4.32,0c-1,.06-1.26-.26-1.26-1.25,0-9.55,0-19.1,0-28.65,0-1.9,0-1.9-1.89-1.9H0V7.19c.22-.48.62-.52,1.08-.52h26.5c.72,0,1,.19,1,.94C28.49,9,28.49,10.39,28.55,11.78Z"/><path class="cls-2" d="M454.66,31.06a25.31,25.31,0,0,1-3.06,7.85,23.5,23.5,0,0,1-31,9.84,35.41,35.41,0,0,1-9.49-6.57c-8.79-8.12-17.51-16.31-26.4-24.31-5.47-4.91-11.94-6.74-19.1-4.45a14.82,14.82,0,0,0-9.79,16.3,17.91,17.91,0,0,0,1.68,5.56,9.94,9.94,0,0,0,8.74,5.57c6.15.4,11.51-1.85,16.42-5.27A72.79,72.79,0,0,0,391,28.44c.73-.69,1.15-.77,1.92,0,2.86,2.84,5.8,5.59,8.72,8.36.52.49.9,1,.22,1.6a93.87,93.87,0,0,1-8.59,7.6c-4.56,3.24-9.52,5.31-14.88,5.19-12.49,0-23.5-9-25.26-21.1C351.43,18.17,357.33,6,370.38,1.46c6.41-2.23,12.59-1,18.51,2a38.2,38.2,0,0,1,8.53,6.3q12.34,11.41,24.68,22.83a27.37,27.37,0,0,0,10.72,6.52,15.59,15.59,0,0,0,18.87-8.44A4.83,4.83,0,0,1,452,30a1.43,1.43,0,0,1,1.91-.75A1.46,1.46,0,0,1,454.66,31.06Z"/><path class="cls-2" d="M130.1,38.93q0-16.23,0-32.47c0-.81,0-1.39-1.09-1.35-1.43.06-2.87.08-4.31,0-.91,0-1.12.34-1.11,1.2,0,4.73,0,9.47,0,14.21a1.82,1.82,0,0,1-.13,1.12c-.13-.09-.21-.11-.26-.17-3.69-4.23-12-4.26-16.33-.25-3.93,3.61-5,8.12-4.14,13.14s3.6,8.41,8.42,9.93c4.54,1.44,8.75.75,12.44-3,0,.92,0,1.63,0,2.33s.2.83.82.82q2.4-.06,4.8,0c.68,0,.9-.2.89-.88C130.07,42,130.1,40.49,130.1,38.93Zm-14,0A7.26,7.26,0,0,1,109,31.53a7.07,7.07,0,0,1,7.15-7.22,7.23,7.23,0,0,1,7.43,7.25A7.35,7.35,0,0,1,116.11,39Z"/><path class="cls-2" d="M453.58,22.94c-.85.13-1.43-.37-1.75-1.55a17.59,17.59,0,0,0-2.47-5.77,10.5,10.5,0,0,0-9.54-4.44c-5,.18-9.28,2.16-13.25,4.92a81.57,81.57,0,0,0-8.93,7.57c-.52.49-.91.68-1.5.11q-4.61-4.37-9.24-8.68c-.48-.44-.72-.77-.1-1.32a96.77,96.77,0,0,1,10.28-8.56A26.62,26.62,0,0,1,432.85.36c8.28.56,15.56,4.68,19.89,13.39a21.59,21.59,0,0,1,2,7.06C454.91,22.05,454.47,22.81,453.58,22.94Z"/><path class="cls-2" d="M207.1,44.48c-5.95,0-11.91,0-17.87,0-1.28,0-2.56-.07-3.84,0-.95.06-1.11-.3-1.1-1.15,0-5.93,0-11.86,0-17.8s0-11.78,0-17.67c0-.92.21-1.21,1.18-1.21q10.49.07,21,0c1,0,1.23.31,1.18,1.22a28.55,28.55,0,0,0,0,3.7c.05.9-.23,1.14-1.13,1.13-4.72,0-9.44,0-14.16,0-1.14,0-1.37.35-1.35,1.4.08,2.58.06,5.17,0,7.76,0,.79.25,1,1,1,3.91,0,7.83,0,11.75,0,1.77,0,1.79,0,1.8,1.8,0,1.07-.06,2.15,0,3.22.06.89-.22,1.15-1.13,1.14-4.08-.05-8.16,0-12.24-.05-1,0-1.27.28-1.24,1.26.08,2.35.07,4.7,0,7.05,0,1,.21,1.28,1.24,1.27,4.87-.06,9.75,0,14.63-.06,1.12,0,1.38.4,1.36,1.35,0,1.2-.07,2.4,0,3.58C208.31,44.27,208,44.48,207.1,44.48Z"/><path class="cls-2" d="M69.77,25.71c-.4-.88-1.4-1.77-1.29-2.53s1.25-1.46,1.93-2.18c.21-.22.56-.45.19-.78-.74-.66-1.28-1.75-2.2-1.94-.66-.13-1.13,1-1.73,1.48a4.11,4.11,0,0,0-.59.59c-.31.38-.59.38-1,.11a13.77,13.77,0,0,0-7.59-2.17c-4.76,0-8.75,1.68-11.53,5.63a13.67,13.67,0,0,0,.11,15.46c.43.63.56,1.07-.13,1.55a4,4,0,0,0-.51.5c-.55.57-1.52,1.13-1.55,1.72s1.06,1.18,1.57,1.83.92.73,1.48,0,1.2-1.17,1.73-1.81.85-.5,1.41-.16A13.68,13.68,0,0,0,57.48,45C68.34,44.83,73.7,34.35,69.77,25.71Zm-18,9.17c-.47.54-.74.54-1.06-.16a7.44,7.44,0,0,1,4.42-10.16,6.34,6.34,0,0,1,1.77-.23,7.53,7.53,0,0,1,3.27.48c.7.3,1,.51.29,1.2-2.48,2.47-4.91,5-7.36,7.49C52.7,34,52.23,34.4,51.81,34.88ZM57.12,39a6.65,6.65,0,0,1-2.64-.53c-.66-.26-.75-.51-.2-1.05,2.18-2.16,4.33-4.37,6.48-6.56.75-.77,1.51-1.53,2.22-2.33.48-.54.75-.57,1,.17A7.41,7.41,0,0,1,57.12,39Z"/><path class="cls-2" d="M250.65,18.51c-6.17,1-10.09,5.19-10.78,11.43-.6,5.4,1.13,10,5.94,13a14.5,14.5,0,0,0,11.31,1.57,12.41,12.41,0,0,0,7.34-4.6c.25-.34.57-.65,0-1.06-1.1-.78-2.16-1.62-3.23-2.46-.43-.35-.73-.28-1.1.11-2.41,2.52-5.41,3-8.7,2.43a6,6,0,0,1-4.87-5h1.32c5.35,0,10.71,0,16.07,0,2.72,0,2.42.58,2.47-2.49C266.53,22.67,259.52,17,250.65,18.51Zm8.28,10.91c-1.91-.06-3.83,0-5.74,0s-3.91,0-5.86,0c-.84,0-.91-.23-.67-1,1.17-3.6,4.42-4.94,7.86-4.46a5.88,5.88,0,0,1,5.24,4.22C260,29.07,260,29.46,258.93,29.42Z"/><path class="cls-2" d="M159.93,28.3c-1.16-5.92-6.17-9.7-12.07-10-7.61-.39-14.11,4.85-14.27,12.76-.07,4.13,1,7.79,4.25,10.57,4.06,3.52,8.8,4,13.82,2.7A12,12,0,0,0,158.23,40c.42-.54.41-.85-.15-1.25-1-.71-2-1.43-2.94-2.24-.54-.46-.82-.37-1.26.09a8.67,8.67,0,0,1-7.43,2.54c-2.66-.25-4.81-1.4-5.85-4-.42-1.07-.36-1.17.76-1.17,3,0,5.91,0,8.87,0s5.92,0,8.88,0c.69,0,.93-.16,1-.89A13.47,13.47,0,0,0,159.93,28.3Zm-7.06,1.12c-1.92-.05-3.84,0-5.76,0s-3.91-.05-5.87,0c-1,0-1-.3-.73-1.09A6.27,6.27,0,0,1,145.85,24c3.65-.62,6.85,1.22,7.77,4.4C153.84,29.17,153.75,29.45,152.87,29.42Z"/><path class="cls-2" d="M236.59,37.81c0,1.9,0,3.82,0,5.72,0,.75-.23,1-1,.94-1.52,0-3-.06-4.56,0-.84,0-1-.31-1-1,0-4.3,0-8.59,0-12.89,0-2.26-.73-4.24-2.88-5.38-3.78-2-8.75.81-8.85,5.07s-.07,8.68,0,13c0,1-.31,1.28-1.28,1.23a34.54,34.54,0,0,0-4.07,0c-.89.05-1.16-.2-1.15-1.11.05-4.5,0-9,0-13.49,0-3.34,0-6.69,0-10,0-.78.22-1,1-1,1.47,0,3,.06,4.43,0,.89,0,1.1.32,1,1.11s0,1.42,0,2.42c3.28-4.52,8.93-4.76,12.47-3.23s5,4.57,5.55,8.18S236.51,34.31,236.59,37.81Z"/><path class="cls-2" d="M99.29,43.52c0,.71-.19,1-.94.95-1.48,0-3-.08-4.44,0-1,.06-1.09-.34-1.08-1.17,0-4.14,0-8.28,0-12.42a8.87,8.87,0,0,0-.31-2.35c-.76-2.78-3-4.2-6-3.91a5.75,5.75,0,0,0-5.39,5.16C81,33.41,81.06,37,81,40.65c0,1,0,2.07,0,3.11,0,.5-.16.71-.69.7-1.68,0-3.36,0-5,0-.62,0-.71-.28-.71-.8q0-12,0-24c0-.62.21-.83.84-.82,1.55,0,3.11,0,4.67,0,.71,0,.91.3.91.91v2.49c3.85-4.09,8.59-5.09,13-2.87,2.84,1.43,4.19,3.9,4.86,6.86A17.92,17.92,0,0,1,99.26,30C99.3,34.52,99.26,39,99.29,43.52Z"/><path class="cls-2" d="M44.12,19.69c-.35,1.59-.71,3.18-1,4.77-.14.7-.42.64-1,.43-4.06-1.52-7.07-.05-8.48,4a21.5,21.5,0,0,0-.94,6.46c-.06,2.67,0,5.34,0,8,0,.8-.16,1.14-1,1.1-1.51-.07-3,0-4.55,0-.66,0-.92-.15-.91-.86q0-11.94,0-23.89c0-.57.11-.88.79-.87,1.63,0,3.28,0,4.91,0,.57,0,.78.19.77.76,0,1.34,0,2.68,0,4a13.49,13.49,0,0,1,2.43-3.49,8.7,8.7,0,0,1,8.55-1.26C44,19.07,44.21,19.26,44.12,19.69Z"/><path class="cls-4" d="M287.68,19.85c-.34,1.47-.64,2.95-.95,4.42-.13.6-.25.94-1.09.62-4-1.53-7.05-.06-8.42,3.93a19.9,19.9,0,0,0-1,6.22c0,2.82,0,5.65,0,8.48,0,.71-.17,1-.93.95-1.48,0-3-.06-4.44,0-.89,0-1.16-.21-1.15-1.12.06-3.58,0-7.16,0-10.75,0-4.17,0-8.35,0-12.53,0-1,.31-1.29,1.28-1.24,1.44.08,2.88.05,4.32,0,.68,0,.91.2.89.88-.05,1.25,0,2.5,0,3.75a34.14,34.14,0,0,1,2-3c2.3-2.67,6.35-2.51,8.88-1.66A.73.73,0,0,1,287.68,19.85Z"/><path class="cls-2" d="M181.47,19.65c-.36,1.66-.69,3.33-1,5-.11.54-.4.46-.79.29a8,8,0,0,0-3-.63,5.21,5.21,0,0,0-4.87,2.89,13.17,13.17,0,0,0-1.61,6.4c-.09,3.26-.07,6.52,0,9.78,0,.82-.19,1.13-1.06,1.09-1.51-.07-3,0-4.55,0-.66,0-.91-.16-.9-.86q0-11.94,0-23.87c0-.66.19-.91.88-.89,1.55,0,3.11,0,4.67,0,.65,0,.86.26.86.83v3.55l.27,0A8.09,8.09,0,0,1,174.1,19a9.34,9.34,0,0,1,6.88-.12C181.38,19,181.57,19.18,181.47,19.65Z"/><path class="cls-3" d="M326.37,43.25c0,1-.3,1.28-1.27,1.23a34.71,34.71,0,0,0-4.08,0c-.89.05-1.15-.2-1.14-1.11.05-4.62,0-9.24,0-13.86,0-3.22,0-6.44,0-9.67,0-.79.24-1,1-1,1.44,0,2.88.06,4.32,0,.88,0,1.16.21,1.15,1.13-.05,3.9,0,7.8,0,11.7S326.31,39.39,326.37,43.25Z"/><path class="cls-5" d="M340.56,14.72c-.36-.47-.61-.78.13-1.28a2.16,2.16,0,0,0,.68-2.59,2.07,2.07,0,0,0-2.16-1.55c-.72,0-1.44,0-2.16,0s-.82.23-.81.84q0,2.63,0,5.25c0,.64.14.93.86.92s.79-.3.78-.87a2.57,2.57,0,0,1,.18-1.53,4.35,4.35,0,0,1,1.36,1.7c.52.87,1.22.71,2.21.6C341.2,15.61,340.89,15.16,340.56,14.72Zm-1.93-2.06c-.82.05-.79-.45-.75-1s.05-1,.8-.91,1.23.14,1.19,1S339.32,12.63,338.63,12.66Z"/><path class="cls-5" d="M338.69,5.5a7.21,7.21,0,0,0-7.09,7.3,7,7,0,0,0,7.12,7.08,6.94,6.94,0,0,0,7.13-7.17A7.11,7.11,0,0,0,338.69,5.5Zm0,13.12a6,6,0,0,1-5.83-5.89,5.87,5.87,0,1,1,5.83,5.89Z"/><path class="cls-5" d="M327.3,9.83a4.2,4.2,0,0,1-8.38-.05,4.2,4.2,0,0,1,8.38.05Z"/><path class="cls-1" d="M340.56,14.72c-.36-.47-.61-.78.13-1.28a2.16,2.16,0,0,0,.68-2.59,2.07,2.07,0,0,0-2.16-1.55c-.72,0-1.44,0-2.16,0s-.82.23-.81.84q0,2.63,0,5.25c0,.64.14.93.86.92s.79-.3.78-.87a2.57,2.57,0,0,1,.18-1.53,4.35,4.35,0,0,1,1.36,1.7c.52.87,1.22.71,2.21.6C341.2,15.61,340.89,15.16,340.56,14.72Zm-1.93-2.06c-.82.05-.79-.45-.75-1s.05-1,.8-.91,1.23.14,1.19,1S339.32,12.63,338.63,12.66Z"/><path class="cls-5" d="M340.56,14.72c-.36-.47-.61-.78.13-1.28a2.16,2.16,0,0,0,.68-2.59,2.07,2.07,0,0,0-2.16-1.55c-.72,0-1.44,0-2.16,0s-.82.23-.81.84q0,2.63,0,5.25c0,.64.14.93.86.92s.79-.3.78-.87a2.57,2.57,0,0,1,.18-1.53,4.35,4.35,0,0,1,1.36,1.7c.52.87,1.22.71,2.21.6C341.2,15.61,340.89,15.16,340.56,14.72Zm-1.93-2.06c-.82.05-.79-.45-.75-1s.05-1,.8-.91,1.23.14,1.19,1S339.32,12.63,338.63,12.66Z"/></svg>